ply
format ascii 1.0
comment VCGLIB generated
element vertex 100
property float x
property float y
property float z
property float nx
property float ny
property float nz
property uchar red
property uchar green
property uchar blue
property uchar alpha
property float texture_u
property float texture_v
element face 162
property list uchar int vertex_indices
end_header
25 0 0 0 0 1 255 255 255 255 1 0
19.44444 0 0 0 0 1 255 255 255 255 0.8888888 0
13.88889 0 0 0 0 1 255 255 255 255 0.7777778 0
8.333334 0 0 0 0 1 255 255 255 255 0.6666667 0
2.777779 0 0 0 0 1 255 255 255 255 0.5555556 0
-2.777777 0 0 0 0 1 255 255 255 255 0.4444445 0
-8.333332 0 0 0 0 1 255 255 255 255 0.3333334 0
-13.88889 0 0 0 0 1 255 255 255 255 0.2222223 0
-19.44444 0 0 0 0 1 255 255 255 255 0.1111111 0
-25 0 0 0 0 1 255 255 255 255 0 0
25 5.555555 0 0 0 1 255 255 255 255 1 0.1111111
19.44444 5.555555 0 0 0 1 255 255 255 255 0.8888888 0.1111111
13.88889 5.555555 0 0 0 1 255 255 255 255 0.7777778 0.1111111
8.333334 5.555555 0 0 0 1 255 255 255 255 0.6666667 0.1111111
2.777779 5.555555 0 0 0 1 255 255 255 255 0.5555556 0.1111111
-2.777777 5.555555 0 0 0 1 255 255 255 255 0.4444445 0.1111111
-8.333332 5.555555 0 0 0 1 255 255 255 255 0.3333334 0.1111111
-13.88889 5.555555 0 0 0 1 255 255 255 255 0.2222223 0.1111111
-19.44444 5.555555 0 0 0 1 255 255 255 255 0.1111111 0.1111111
-25 5.555555 0 0 0 1 255 255 255 255 0 0.1111111
25 11.11111 0 0 0 1 255 255 255 255 1 0.2222222
19.44444 11.11111 0 0 0 1 255 255 255 255 0.8888888 0.2222222
13.88889 11.11111 0 0 0 1 255 255 255 255 0.7777778 0.2222222
8.333334 11.11111 0 0 0 1 255 255 255 255 0.6666667 0.2222222
2.777779 11.11111 0 0 0 1 255 255 255 255 0.5555556 0.2222222
-2.777777 11.11111 0 0 0 1 255 255 255 255 0.4444445 0.2222222
-8.333332 11.11111 0 0 0 1 255 255 255 255 0.3333334 0.2222222
-13.88889 11.11111 0 0 0 1 255 255 255 255 0.2222223 0.2222222
-19.44444 11.11111 0 0 0 1 255 255 255 255 0.1111111 0.2222222
-25 11.11111 0 0 0 1 255 255 255 255 0 0.2222222
25 16.66667 0 0 0 1 255 255 255 255 1 0.3333333
19.44444 16.66667 0 0 0 1 255 255 255 255 0.8888888 0.3333333
13.88889 16.66667 0 0 0 1 255 255 255 255 0.7777778 0.3333333
8.333334 16.66667 0 0 0 1 255 255 255 255 0.6666667 0.3333333
2.777779 16.66667 0 0 0 1 255 255 255 255 0.5555556 0.3333333
-2.777777 16.66667 0 0 0 1 255 255 255 255 0.4444445 0.3333333
-8.333332 16.66667 0 0 0 1 255 255 255 255 0.3333334 0.3333333
-13.88889 16.66667 0 0 0 1 255 255 255 255 0.2222223 0.3333333
-19.44444 16.66667 0 0 0 1 255 255 255 255 0.1111111 0.3333333
-25 16.66667 0 0 0 1 255 255 255 255 0 0.3333333
25 22.22222 0 0 0 1 255 255 255 255 1 0.4444444
19.44444 22.22222 0 0 0 1 255 255 255 255 0.8888888 0.4444444
13.88889 22.22222 0 0 0 1 255 255 255 255 0.7777778 0.4444444
8.333334 22.22222 0 0 0 1 255 255 255 255 0.6666667 0.4444444
2.777779 22.22222 0 0 0 1 255 255 255 255 0.5555556 0.4444444
-2.777777 22.22222 0 0 0 1 255 255 255 255 0.4444445 0.4444444
-8.333332 22.22222 0 0 0 1 255 255 255 255 0.3333334 0.4444444
-13.88889 22.22222 0 0 0 1 255 255 255 255 0.2222223 0.4444444
-19.44444 22.22222 0 0 0 1 255 255 255 255 0.1111111 0.4444444
-25 22.22222 0 0 0 1 255 255 255 255 0 0.4444444
25 27.77778 0 0 0 1 255 255 255 255 1 0.5555555
19.44444 27.77778 0 0 0 1 255 255 255 255 0.8888888 0.5555555
13.88889 27.77778 0 0 0 1 255 255 255 255 0.7777778 0.5555555
8.333334 27.77778 0 0 0 1 255 255 255 255 0.6666667 0.5555555
2.777779 27.77778 0 0 0 1 255 255 255 255 0.5555556 0.5555555
-2.777777 27.77778 0 0 0 1 255 255 255 255 0.4444445 0.5555555
-8.333332 27.77778 0 0 0 1 255 255 255 255 0.3333334 0.5555555
-13.88889 27.77778 0 0 0 1 255 255 255 255 0.2222223 0.5555555
-19.44444 27.77778 0 0 0 1 255 255 255 255 0.1111111 0.5555555
-25 27.77778 0 0 0 1 255 255 255 255 0 0.5555555
25 33.33333 0 0 0 1 255 255 255 255 1 0.6666666
19.44444 33.33333 0 0 0 1 255 255 255 255 0.8888888 0.6666666
13.88889 33.33333 0 0 0 1 255 255 255 255 0.7777778 0.6666666
8.333334 33.33333 0 0 0 1 255 255 255 255 0.6666667 0.6666666
2.777779 33.33333 0 0 0 1 255 255 255 255 0.5555556 0.6666666
-2.777777 33.33333 0 0 0 1 255 255 255 255 0.4444445 0.6666666
-8.333332 33.33333 0 0 0 1 255 255 255 255 0.3333334 0.6666666
-13.88889 33.33333 0 0 0 1 255 255 255 255 0.2222223 0.6666666
-19.44444 33.33333 0 0 0 1 255 255 255 255 0.1111111 0.6666666
-25 33.33333 0 0 0 1 255 255 255 255 0 0.6666666
25 38.88889 0 0 0 1 255 255 255 255 1 0.7777777
19.44444 38.88889 0 0 0 1 255 255 255 255 0.8888888 0.7777777
13.88889 38.88889 0 0 0 1 255 255 255 255 0.7777778 0.7777777
8.333334 38.88889 0 0 0 1 255 255 255 255 0.6666667 0.7777777
2.777779 38.88889 0 0 0 1 255 255 255 255 0.5555556 0.7777777
-2.777777 38.88889 0 0 0 1 255 255 255 255 0.4444445 0.7777777
-8.333332 38.88889 0 0 0 1 255 255 255 255 0.3333334 0.7777777
-13.88889 38.88889 0 0 0 1 255 255 255 255 0.2222223 0.7777777
-19.44444 38.88889 0 0 0 1 255 255 255 255 0.1111111 0.7777777
-25 38.88889 0 0 0 1 255 255 255 255 0 0.7777777
25 44.44444 0 0 0 1 255 255 255 255 1 0.8888888
19.44444 44.44444 0 0 0 1 255 255 255 255 0.8888888 0.8888888
13.88889 44.44444 0 0 0 1 255 255 255 255 0.7777778 0.8888888
8.333334 44.44444 0 0 0 1 255 255 255 255 0.6666667 0.8888888
2.777779 44.44444 0 0 0 1 255 255 255 255 0.5555556 0.8888888
-2.777777 44.44444 0 0 0 1 255 255 255 255 0.4444445 0.8888888
-8.333332 44.44444 0 0 0 1 255 255 255 255 0.3333334 0.8888888
-13.88889 44.44444 0 0 0 1 255 255 255 255 0.2222223 0.8888888
-19.44444 44.44444 0 0 0 1 255 255 255 255 0.1111111 0.8888888
-25 44.44444 0 0 0 1 255 255 255 255 0 0.8888888
25 50 0 0 0 1 255 255 255 255 1 1
19.44444 50 0 0 0 1 255 255 255 255 0.8888888 1
13.88889 50 0 0 0 1 255 255 255 255 0.7777778 1
8.333334 50 0 0 0 1 255 255 255 255 0.6666667 1
2.777779 50 0 0 0 1 255 255 255 255 0.5555556 1
-2.777777 50 0 0 0 1 255 255 255 255 0.4444445 1
-8.333332 50 0 0 0 1 255 255 255 255 0.3333334 1
-13.88889 50 0 0 0 1 255 255 255 255 0.2222223 1
-19.44444 50 0 0 0 1 255 255 255 255 0.1111111 1
-25 50 0 0 0 1 255 255 255 255 0 1
3 11 1 0 
3 0 10 11 
3 12 2 1 
3 1 11 12 
3 13 3 2 
3 2 12 13 
3 14 4 3 
3 3 13 14 
3 15 5 4 
3 4 14 15 
3 16 6 5 
3 5 15 16 
3 17 7 6 
3 6 16 17 
3 18 8 7 
3 7 17 18 
3 19 9 8 
3 8 18 19 
3 21 11 10 
3 10 20 21 
3 22 12 11 
3 11 21 22 
3 23 13 12 
3 12 22 23 
3 24 14 13 
3 13 23 24 
3 25 15 14 
3 14 24 25 
3 26 16 15 
3 15 25 26 
3 27 17 16 
3 16 26 27 
3 28 18 17 
3 17 27 28 
3 29 19 18 
3 18 28 29 
3 31 21 20 
3 20 30 31 
3 32 22 21 
3 21 31 32 
3 33 23 22 
3 22 32 33 
3 34 24 23 
3 23 33 34 
3 35 25 24 
3 24 34 35 
3 36 26 25 
3 25 35 36 
3 37 27 26 
3 26 36 37 
3 38 28 27 
3 27 37 38 
3 39 29 28 
3 28 38 39 
3 41 31 30 
3 30 40 41 
3 42 32 31 
3 31 41 42 
3 43 33 32 
3 32 42 43 
3 44 34 33 
3 33 43 44 
3 45 35 34 
3 34 44 45 
3 46 36 35 
3 35 45 46 
3 47 37 36 
3 36 46 47 
3 48 38 37 
3 37 47 48 
3 49 39 38 
3 38 48 49 
3 51 41 40 
3 40 50 51 
3 52 42 41 
3 41 51 52 
3 53 43 42 
3 42 52 53 
3 54 44 43 
3 43 53 54 
3 55 45 44 
3 44 54 55 
3 56 46 45 
3 45 55 56 
3 57 47 46 
3 46 56 57 
3 58 48 47 
3 47 57 58 
3 59 49 48 
3 48 58 59 
3 61 51 50 
3 50 60 61 
3 62 52 51 
3 51 61 62 
3 63 53 52 
3 52 62 63 
3 64 54 53 
3 53 63 64 
3 65 55 54 
3 54 64 65 
3 66 56 55 
3 55 65 66 
3 67 57 56 
3 56 66 67 
3 68 58 57 
3 57 67 68 
3 69 59 58 
3 58 68 69 
3 71 61 60 
3 60 70 71 
3 72 62 61 
3 61 71 72 
3 73 63 62 
3 62 72 73 
3 74 64 63 
3 63 73 74 
3 75 65 64 
3 64 74 75 
3 76 66 65 
3 65 75 76 
3 77 67 66 
3 66 76 77 
3 78 68 67 
3 67 77 78 
3 79 69 68 
3 68 78 79 
3 81 71 70 
3 70 80 81 
3 82 72 71 
3 71 81 82 
3 83 73 72 
3 72 82 83 
3 84 74 73 
3 73 83 84 
3 85 75 74 
3 74 84 85 
3 86 76 75 
3 75 85 86 
3 87 77 76 
3 76 86 87 
3 88 78 77 
3 77 87 88 
3 89 79 78 
3 78 88 89 
3 91 81 80 
3 80 90 91 
3 92 82 81 
3 81 91 92 
3 93 83 82 
3 82 92 93 
3 94 84 83 
3 83 93 94 
3 95 85 84 
3 84 94 95 
3 96 86 85 
3 85 95 96 
3 97 87 86 
3 86 96 97 
3 98 88 87 
3 87 97 98 
3 99 89 88 
3 88 98 99 
