ply
format ascii 1.0
comment VCGLIB generated
element vertex 184
property float x
property float y
property float z
property float nx
property float ny
property float nz
property uchar red
property uchar green
property uchar blue
property uchar alpha
property float texture_u
property float texture_v
element face 152
property list uchar int vertex_indices
end_header
-0.2740633 12.72594 1.262763 -1.701334 0.1174237 0.1572437 168 78 0 255 0.625 0
-0.347849 13.34785 0 -1.701334 2.114018 0.2739087 168 78 0 255 0.375 0.25
-0.4408385 12.54866 0 -1.009181 0.1174237 0.1167997 168 78 0 255 0.375 0
-0.2740633 13.27406 1.262763 -0.6921534 0.9982973 0.09877644 168 78 0 255 0.625 0.25
0.2740633 13.27406 1.262763 0.9982972 1.996595 2.174998 168 78 0 255 0.625 0.5
0.347849 13.34785 0 1.996594 0.9982973 -0.8250024 168 78 0 255 0.375 0.5
0.2740633 12.72594 1.262763 1.996594 -0.6921538 1.105427 168 78 0 255 0.625 0.75
0.347849 12.74644 0 1.248041 -1.688079 -1.846077 168 78 0 255 0.375 0.75
-0.2740633 12.72594 1.262763 0.249744 -1.688079 0.09559047 168 78 0 255 0.625 1
-0.4408385 12.54866 0 0.249744 -0.9959253 0.1068287 168 78 0 255 0.375 1
-0.347849 13.34785 0 0 0 -2 168 78 0 255 0.125 0.5
-0.4408385 12.54866 0 0 0 -1 168 78 0 255 0.125 0.75
-0.2740633 13.27406 1.262763 0 0 1 168 78 0 255 0.875 0.5
-0.2740633 12.72594 1.262763 0 0 2 168 78 0 255 0.875 0.75
8.11535e-10 14.62939 0.8835337 0.7386261 1.7832 0.524049 9 67 11 255 1 0.5
1.284698e-08 14.25776 2.148098 0.369313 0.8916002 0.2620245 11 78 13 255 1 1
0.8893699 13.88937 2.148098 1.630226 2.152513 0.7860737 11 80 14 255 0.875 1
1.152153 14.15215 0.8835337 2.152514 1.630226 0.7860738 9 68 12 255 0.875 0.5
1.257759 13 2.148098 2.674801 0.369313 0.7860739 11 82 14 255 0.75 1
1.629391 13 0.8835337 2.674801 -0.369313 0.7860739 10 70 12 255 0.75 0.5
0.8893699 12.11063 2.148098 2.152514 -1.630226 0.7860738 12 83 14 255 0.625 1
1.152153 11.84785 0.8835337 1.630226 -2.152514 0.7860737 10 71 12 255 0.625 0.5
-9.710981e-08 11.74224 2.148098 0.3693129 -2.674801 0.7860736 12 83 14 255 0.5 1
-1.416343e-07 11.37061 0.8835337 -0.3693131 -2.674801 0.7860736 10 71 12 255 0.5 0.5
-0.88937 12.11063 2.148098 -1.630226 -2.152513 0.7860738 11 81 14 255 0.375 1
-1.152153 11.84785 0.8835337 -2.152514 -1.630226 0.7860739 10 69 12 255 0.375 0.5
-1.257759 13 2.148098 -2.674801 -0.3693129 0.786074 11 79 13 255 0.25 1
-1.629391 13 0.8835337 -2.674801 0.3693129 0.786074 9 68 11 255 0.25 0.5
0.8893699 13.88937 2.148098 0 0 6 11 80 14 255 0.4197056 0.4197056
1.284698e-08 14.25776 2.148098 0 0 1 11 78 13 255 0.25 0.49
-0.88937 13.88937 2.148098 0 0 2 11 78 13 255 0.08029436 0.4197056
-1.257759 13 2.148098 0 0 2 11 79 13 255 0.01000001 0.25
-0.88937 12.11063 2.148098 0 0 2 11 81 14 255 0.08029436 0.0802944
-9.710981e-08 11.74224 2.148098 0 0 2 12 83 14 255 0.25 0.01000001
0.8893699 12.11063 2.148098 0 0 2 12 83 14 255 0.4197056 0.08029439
1.257759 13 2.148098 0 0 1 11 82 14 255 0.49 0.25
-0.88937 13.88937 2.148098 -2.152514 1.630226 0.7860738 11 78 13 255 0.125 1
-1.152153 14.15215 0.8835337 -1.630226 2.152514 0.7860737 9 67 11 255 0.125 0.5
1.284698e-08 14.25776 2.148098 -0.7386259 1.783201 0.524049 11 78 13 255 0 1
8.11535e-10 14.62939 0.8835337 -0.369313 0.8916003 0.2620245 9 67 11 255 0 0.5
8.11535e-10 14.62939 0.8835337 0 0 -6 9 67 11 255 0.75 0.49
1.152153 14.15215 0.8835337 0 0 -1 9 68 12 255 0.9197056 0.4197056
1.629391 13 0.8835337 0 0 -2 10 70 12 255 0.99 0.25
1.152153 11.84785 0.8835337 0 0 -2 10 71 12 255 0.9197056 0.08029439
-1.416343e-07 11.37061 0.8835337 0 0 -2 10 71 12 255 0.75 0.01000001
-1.152153 11.84785 0.8835337 0 0 -2 10 69 12 255 0.5802944 0.0802944
-1.629391 13 0.8835337 0 0 -2 9 68 11 255 0.51 0.25
-1.152153 14.15215 0.8835337 0 0 -1 9 67 11 255 0.5802944 0.4197056
0.01108283 14.45236 1.812399 0.7188823 1.816431 0.4287033 10 75 13 255 1 0.5
-0.07598421 14.20142 3.021646 0.3594412 0.9082155 0.2143516 12 86 15 255 1 1
0.7705376 13.84953 3.093095 1.610063 2.193071 0.6815641 12 88 15 255 0.875 1
1.034418 14.02697 1.898772 2.141803 1.661497 0.7200733 11 78 13 255 0.875 0.5
1.121179 13 3.12269 2.673542 0.3766407 0.7585827 13 91 16 255 0.75 1
1.458298 13 1.934549 2.673542 -0.3766402 0.7585828 11 80 14 255 0.75 0.5
0.7705376 12.15047 3.093095 2.141802 -1.661496 0.7200739 13 92 16 255 0.625 1
1.034418 11.97303 1.898772 1.610062 -2.193072 0.6815649 11 81 14 255 0.625 0.5
-0.07598434 11.79858 3.021646 0.3284975 -2.723068 0.58874 13 91 16 255 0.5 1
0.01108267 11.54764 1.812399 -0.421327 -2.721488 0.5344241 11 80 14 255 0.5 0.5
-0.9225062 12.15047 2.950196 -1.69974 -2.188333 0.4418088 12 88 15 255 0.375 1
-1.012253 11.97303 1.726026 -2.228328 -1.656758 0.4035094 11 77 13 255 0.375 0.5
-1.273147 13 2.920601 -2.756916 -0.3750607 0.3652099 12 86 15 255 0.25 1
-1.436132 13 1.690249 -2.756916 0.375061 0.3652098 10 75 13 255 0.25 0.5
0.7705376 13.84953 3.093095 -0.5046274 8.263152e-08 5.978742 12 88 15 255 0.4197056 0.4197056
-0.07598421 14.20142 3.021646 -0.08410472 1.240979e-07 0.9964569 12 86 15 255 0.25 0.49
-0.9225062 13.84953 2.950196 -0.1682093 1.791371e-08 1.992914 12 85 14 255 0.08029436 0.4197056
-1.273147 13 2.920601 -0.1682093 -7.250377e-08 1.992914 12 86 15 255 0.01000001 0.25
-0.9225062 12.15047 2.950196 -0.1682094 4.746468e-08 1.992914 12 88 15 255 0.08029436 0.0802944
-0.07598434 11.79858 3.021646 -0.168209 2.241077e-08 1.992914 13 91 16 255 0.25 0.01000001
0.7705376 12.15047 3.093095 -0.1682087 1.725312e-08 1.992914 13 92 16 255 0.4197056 0.08029439
1.121179 13 3.12269 -0.08410437 8.626562e-09 0.9964569 13 91 16 255 0.49 0.25
-0.9225062 13.84953 2.950196 -2.228328 1.656758 0.4035087 12 85 14 255 0.125 1
-1.012253 14.02697 1.726026 -1.69974 2.188333 0.4418079 10 74 13 255 0.125 0.5
-0.07598421 14.20142 3.021646 -0.7807683 1.813272 0.3200713 12 86 15 255 0 1
0.01108283 14.45236 1.812399 -0.3903841 0.9066359 0.1600357 10 75 13 255 0 0.5
0.01108283 14.45236 1.812399 0.5046269 3.139951e-08 -5.978742 10 75 13 255 0.75 0.49
1.034418 14.02697 1.898772 0.08410454 0 -0.9964569 11 78 13 255 0.9197056 0.4197056
1.458298 13 1.934549 0.168209 -3.433279e-09 -1.992914 11 80 14 255 0.99 0.25
1.034418 11.97303 1.898772 0.1682089 -7.728524e-09 -1.992914 11 81 14 255 0.9197056 0.08029439
0.01108267 11.54764 1.812399 0.1682089 -3.922321e-08 -1.992914 11 80 14 255 0.75 0.01000001
-1.012253 11.97303 1.726026 0.168209 2.10003e-09 -1.992914 11 77 13 255 0.5802944 0.0802944
-1.436132 13 1.690249 0.1682089 7.4056e-08 -1.992914 10 75 13 255 0.51 0.25
-1.012253 14.02697 1.726026 0.08410445 3.7028e-08 -0.996457 10 74 13 255 0.5802944 0.4197056
-0.03985387 14.32505 2.868713 0.7055395 1.819258 0.4387634 12 84 14 255 1 0.5
-0.1662249 14.09611 4.021204 0.3527698 0.9096292 0.2193817 13 94 16 255 1 1
0.603115 13.77507 4.115242 1.589028 2.196468 0.7165438 14 97 17 255 0.875 1
0.8901789 13.93695 2.982393 2.119746 1.664048 0.7749425 12 87 15 255 0.875 0.5
0.921786 13 4.154194 2.650464 0.3772096 0.8333411 14 99 17 255 0.75 1
1.275411 13 3.02948 2.650464 -0.3772091 0.833341 13 90 15 255 0.75 0.5
0.603115 12.22493 4.115242 2.119746 -1.664048 0.7749419 14 101 17 255 0.625 1
0.8901789 12.06305 2.982393 1.589027 -2.196468 0.7165428 13 91 16 255 0.625 0.5
-0.1662251 11.90389 4.021204 0.3098428 -2.727363 0.5757718 14 99 17 255 0.5 1
-0.03985402 11.67495 2.868713 -0.4386226 -2.725838 0.4933998 13 90 15 255 0.5 0.5
-0.9355648 12.22493 3.927166 -1.714773 -2.191893 0.352944 14 96 17 255 0.375 1
-0.9698866 12.06305 2.755033 -2.242457 -1.659473 0.2948602 12 87 15 255 0.375 0.5
-1.254236 13 3.888215 -2.770142 -0.3756846 0.2367764 13 94 16 255 0.25 1
-1.355119 13 2.707945 -2.770142 0.3756846 0.2367764 12 84 14 255 0.25 0.5
0.603115 13.77507 4.115242 -0.7279751 9.64978e-08 5.955674 14 97 17 255 0.4197056 0.4197056
-0.1662249 14.09611 4.021204 -0.1213292 9.646965e-08 0.9926123 13 94 16 255 0.25 0.49
-0.9355648 13.77507 3.927166 -0.2426583 -2.874572e-10 1.985225 13 93 16 255 0.08029436 0.4197056
-1.254236 13 3.888215 -0.2426583 -4.97934e-08 1.985225 13 94 16 255 0.01000001 0.25
-0.9355648 12.22493 3.927166 -0.2426584 6.829674e-08 1.985225 14 96 17 255 0.08029436 0.0802944
-0.1662251 11.90389 4.021204 -0.2426583 3.55773e-08 1.985225 14 99 17 255 0.25 0.01000001
0.603115 12.22493 4.115242 -0.2426583 2.848852e-08 1.985225 14 101 17 255 0.4197056 0.08029439
0.921786 13 4.154194 -0.1213292 1.424426e-08 0.9926124 14 99 17 255 0.49 0.25
-0.9355648 13.77507 3.927166 -2.242457 1.659473 0.2948602 13 93 16 255 0.125 1
-0.9698866 13.93695 2.755033 -1.714773 2.191893 0.352944 12 83 14 255 0.125 0.5
-0.1662249 14.09611 4.021204 -0.7913918 1.816208 0.2740186 13 94 16 255 0 1
-0.03985387 14.32505 2.868713 -0.3956959 0.9081042 0.1370093 12 84 14 255 0 0.5
-0.03985387 14.32505 2.868713 0.7279754 4.501743e-08 -5.955674 12 84 14 255 0.75 0.49
0.8901789 13.93695 2.982393 0.1213292 0 -0.9926123 12 87 15 255 0.9197056 0.4197056
1.275411 13 3.02948 0.2426586 -4.985068e-09 -1.985225 13 90 15 255 0.99 0.25
0.8901789 12.06305 2.982393 0.2426585 -1.140137e-08 -1.985225 13 91 16 255 0.9197056 0.08029439
-0.03985402 11.67495 2.868713 0.2426585 -6.822452e-08 -1.985225 13 90 15 255 0.75 0.01000001
-0.9698866 12.06305 2.755033 0.2426585 -2.694708e-09 -1.985225 12 87 15 255 0.5802944 0.0802944
-1.355119 13 2.707945 0.2426584 1.18227e-07 -1.985225 12 84 14 255 0.51 0.25
-0.9698866 13.93695 2.755033 0.1213292 5.911351e-08 -0.9926124 12 83 14 255 0.5802944 0.4197056
-0.1565298 14.12677 4.015 0.6951151 1.792441 0.5513355 13 94 16 255 1 0.5
-0.2658871 13.89877 4.894115 0.3475576 0.8962204 0.2756677 14 101 17 255 1 1
0.3998742 13.6184 4.966231 1.56874 2.156729 0.8739388 15 104 18 255 0.875 1
0.64829 13.78784 4.10218 2.094808 1.624798 0.9208745 14 97 17 255 0.875 0.5
0.6756417 12.94694 4.977669 2.621022 0.3436754 0.9424849 15 106 18 255 0.75 1
0.9816569 12.97612 4.116006 2.621168 -0.4055148 0.9171596 14 99 17 255 0.75 0.5
0.3998742 12.27771 4.921729 2.095327 -1.68251 0.8090602 15 107 18 255 0.625 1
0.64829 12.16711 4.048383 1.569339 -2.210316 0.726286 14 100 17 255 0.625 0.5
-0.2658873 12.00274 4.83118 0.2991273 -2.735232 0.5517538 15 106 18 255 0.5 1
-0.1565299 11.83471 3.93892 -0.445097 -2.732343 0.4599957 14 99 17 255 0.5 0.5
-0.9316485 12.28311 4.759064 -1.7157 -2.197342 0.3212698 15 103 18 255 0.375 1
-0.9613493 12.17364 3.851742 -2.242079 -1.665231 0.2743021 13 96 16 255 0.375 0.5
-1.207416 12.95457 4.747625 -2.768427 -0.383616 0.2526925 14 101 17 255 0.25 1
-1.294716 12.98535 3.837914 -2.768396 0.3658873 0.2780507 13 93 16 255 0.25 0.5
0.3998742 13.6184 4.966231 -0.7279756 -0.197579 5.952395 15 104 18 255 0.4197056 0.4197056
-0.2658871 13.89877 4.894115 -0.1213292 -0.03293008 0.9920659 14 101 17 255 0.25 0.49
-0.9316485 13.6238 4.803566 -0.2426585 -0.06585988 1.984132 14 100 17 255 0.08029436 0.4197056
-1.207416 12.95457 4.747625 -0.2426584 -0.06585963 1.984132 14 101 17 255 0.01000001 0.25
-0.9316485 12.28311 4.759064 -0.2426584 -0.06585962 1.984132 15 103 18 255 0.08029436 0.0802944
-0.2658873 12.00274 4.83118 -0.2426587 -0.06585956 1.984132 15 106 18 255 0.25 0.01000001
0.3998742 12.27771 4.921729 -0.2426588 -0.06585953 1.984132 15 107 18 255 0.4197056 0.08029439
0.6756417 12.94694 4.977669 -0.1213294 -0.03292977 0.9920659 15 106 18 255 0.49 0.25
-0.9316485 13.6238 4.803566 -2.242067 1.643016 0.3862155 14 100 17 255 0.125 1
-0.9613493 13.79437 3.905538 -1.715769 2.170641 0.4690222 13 93 16 255 0.125 0.5
-0.2658871 13.89877 4.894115 -0.7929802 1.798845 0.367886 14 101 17 255 0 1
-0.1565298 14.12677 4.015 -0.3964901 0.8994223 0.183943 13 94 16 255 0 0.5
-0.1565298 14.12677 4.015 0.7279755 0.1975769 -5.952396 13 94 16 255 0.75 0.49
0.64829 13.78784 4.10218 0.1213289 0.03292964 -0.992066 14 97 17 255 0.9197056 0.4197056
0.9816569 12.97612 4.116006 0.242658 0.06585927 -1.984132 14 99 17 255 0.99 0.25
0.64829 12.16711 4.048383 0.2426581 0.06585926 -1.984132 14 100 17 255 0.9197056 0.08029439
-0.1565299 11.83471 3.93892 0.2426584 0.06585899 -1.984132 14 99 17 255 0.75 0.01000001
-0.9613493 12.17364 3.851742 0.242659 0.06585869 -1.984132 13 96 16 255 0.5802944 0.0802944
-1.294716 12.98535 3.837914 0.2426592 0.06585865 -1.984132 13 93 16 255 0.51 0.25
-0.9613493 13.79437 3.905538 0.1213296 0.03292933 -0.992066 13 93 16 255 0.5802944 0.4197056
-0.2206528 14.02351 4.894588 0.5743047 1.620972 1.021089 14 101 17 255 1 0.5
-0.7853003 12.96068 6.89941 0.2871523 0.8104861 0.5105444 17 118 20 255 1 1
-0.7853003 12.96068 6.89941 1.300446 1.927339 1.636604 17 118 20 255 0.875 1
0.5313823 13.7065 4.974854 1.739434 1.423219 1.741575 15 104 18 255 0.875 0.5
-0.7853003 12.96068 6.89941 2.165524 0.2655249 1.839909 17 118 20 255 0.75 1
0.8428852 12.94798 4.98491 2.152625 -0.3880491 1.833272 15 106 18 255 0.75 0.5
-0.7853003 12.96068 6.89941 1.697277 -1.517421 1.717089 17 118 20 255 0.625 1
0.5313823 12.19228 4.918869 1.254829 -1.993219 1.607543 15 108 18 255 0.625 0.5
-0.7853003 12.96068 6.89941 0.1454723 -2.50087 1.333789 17 118 20 255 0.5 1
-0.2206529 11.88206 4.815414 -0.5214358 -2.532725 1.169581 15 106 18 255 0.5 0.5
-0.7853003 12.96068 6.89941 -1.697933 -2.078903 0.8785832 17 118 20 255 0.375 1
-0.9726878 12.19907 4.735149 -2.207523 -1.593227 0.7517942 15 103 18 255 0.375 0.5
-0.7853003 12.96068 6.89941 -2.721926 -0.3812646 0.6250787 17 118 20 255 0.25 1
-1.284191 12.95759 4.725091 -2.72674 0.3450221 0.6251521 14 101 17 255 0.25 0.5
-0.7853003 12.96068 6.89941 0 0 0 17 118 20 255 0.4197056 0.4197056
-0.7853003 12.96068 6.89941 0 0 0 17 118 20 255 0.25 0.49
-0.7853003 12.96068 6.89941 0 0 0 17 118 20 255 0.08029436 0.4197056
-0.7853003 12.96068 6.89941 0 0 0 17 118 20 255 0.01000001 0.25
-0.7853003 12.96068 6.89941 0 0 0 17 118 20 255 0.08029436 0.0802944
-0.7853003 12.96068 6.89941 0 0 0 17 118 20 255 0.25 0.01000001
-0.7853003 12.96068 6.89941 0 0 0 17 118 20 255 0.4197056 0.08029439
-0.7853003 12.96068 6.89941 0 0 0 17 118 20 255 0.49 0.25
-0.7853003 12.96068 6.89941 -2.219248 1.566326 0.7564038 17 118 20 255 0.125 1
-0.9726878 13.7133 4.791133 -1.706942 2.061343 0.8875821 14 100 17 255 0.125 0.5
-0.7853003 12.96068 6.89941 -0.7964237 1.70424 0.6791736 17 118 20 255 0 1
-0.2206528 14.02351 4.894588 -0.3982119 0.8521198 0.3395868 14 101 17 255 0 0.5
-0.2206528 14.02351 4.894588 0.7279753 0.2200427 -5.951608 14 101 17 255 0.75 0.49
0.5313823 13.7065 4.974854 0.1213282 0.03667376 -0.9919348 15 104 18 255 0.9197056 0.4197056
0.8428852 12.94798 4.98491 0.2426571 0.0733477 -1.983869 15 106 18 255 0.99 0.25
0.5313823 12.19228 4.918869 0.2426578 0.07334796 -1.983869 15 108 18 255 0.9197056 0.08029439
-0.2206529 11.88206 4.815414 0.2426585 0.07334767 -1.983869 15 106 18 255 0.75 0.01000001
-0.9726878 12.19907 4.735149 0.2426596 0.07334732 -1.983869 15 103 18 255 0.5802944 0.0802944
-1.284191 12.95759 4.725091 0.2426597 0.07334732 -1.983869 14 101 17 255 0.51 0.25
-0.9726878 13.7133 4.791133 0.1213299 0.03667366 -0.9919345 14 100 17 255 0.5802944 0.4197056
3 0 1 2 
3 1 3 4 
3 1 4 5 
3 5 4 6 
3 5 6 7 
3 7 8 9 
3 10 5 7 
3 10 7 11 
3 4 12 13 
3 4 13 6 
3 7 6 8 
3 0 3 1 
3 14 15 16 
3 14 16 17 
3 17 16 18 
3 17 18 19 
3 19 18 20 
3 19 20 21 
3 21 20 22 
3 21 22 23 
3 23 22 24 
3 23 24 25 
3 25 24 26 
3 25 26 27 
3 28 29 30 
3 28 30 31 
3 28 31 32 
3 28 32 33 
3 28 33 34 
3 28 34 35 
3 27 26 36 
3 27 36 37 
3 37 36 38 
3 37 38 39 
3 40 41 42 
3 40 42 43 
3 40 43 44 
3 40 44 45 
3 40 45 46 
3 40 46 47 
3 48 49 50 
3 48 50 51 
3 51 50 52 
3 51 52 53 
3 53 52 54 
3 53 54 55 
3 55 54 56 
3 55 56 57 
3 57 56 58 
3 57 58 59 
3 59 58 60 
3 59 60 61 
3 62 63 64 
3 62 64 65 
3 62 65 66 
3 62 66 67 
3 62 67 68 
3 62 68 69 
3 61 60 70 
3 61 70 71 
3 71 70 72 
3 71 72 73 
3 74 75 76 
3 74 76 77 
3 74 77 78 
3 74 78 79 
3 74 79 80 
3 74 80 81 
3 82 83 84 
3 82 84 85 
3 85 84 86 
3 85 86 87 
3 87 86 88 
3 87 88 89 
3 89 88 90 
3 89 90 91 
3 91 90 92 
3 91 92 93 
3 93 92 94 
3 93 94 95 
3 96 97 98 
3 96 98 99 
3 96 99 100 
3 96 100 101 
3 96 101 102 
3 96 102 103 
3 95 94 104 
3 95 104 105 
3 105 104 106 
3 105 106 107 
3 108 109 110 
3 108 110 111 
3 108 111 112 
3 108 112 113 
3 108 113 114 
3 108 114 115 
3 116 117 118 
3 116 118 119 
3 119 118 120 
3 119 120 121 
3 121 120 122 
3 121 122 123 
3 123 122 124 
3 123 124 125 
3 125 124 126 
3 125 126 127 
3 127 126 128 
3 127 128 129 
3 130 131 132 
3 130 132 133 
3 130 133 134 
3 130 134 135 
3 130 135 136 
3 130 136 137 
3 129 128 138 
3 129 138 139 
3 139 138 140 
3 139 140 141 
3 142 143 144 
3 142 144 145 
3 142 145 146 
3 142 146 147 
3 142 147 148 
3 142 148 149 
3 150 151 152 
3 150 152 153 
3 153 152 154 
3 153 154 155 
3 155 154 156 
3 155 156 157 
3 157 156 158 
3 157 158 159 
3 159 158 160 
3 159 160 161 
3 161 160 162 
3 161 162 163 
3 164 165 166 
3 164 166 167 
3 164 167 168 
3 164 168 169 
3 164 169 170 
3 164 170 171 
3 163 162 172 
3 163 172 173 
3 173 172 174 
3 173 174 175 
3 176 177 178 
3 176 178 179 
3 176 179 180 
3 176 180 181 
3 176 181 182 
3 176 182 183 
